<svg version="1.0" preserveAspectRatio="xMidYMid meet" viewBox="71.25 68.249998362 219.75 221.24999469" zoomAndPan="magnify" xmlns:xlink="http://www.w3.org/1999/xlink" xmlns="http://www.w3.org/2000/svg" style="max-height: 500px" width="219.75" height="221.24999469"><defs><g/><clipPath id="bca18303e7"><path clip-rule="nonzero" d="M 152 76 L 283 76 L 283 286.21875 L 152 286.21875 Z M 152 76"/></clipPath></defs><rect fill-opacity="1" height="449.999989" y="-37.499999" fill="#ffffff" width="450" x="-37.5"/><rect fill-opacity="1" height="449.999989" y="-37.499999" fill="#ffffff" width="450" x="-37.5"/><g clip-path="url(#bca18303e7)"><path fill-rule="evenodd" fill-opacity="1" d="M 176.699219 81.457031 C 183.105469 81.457031 191.820312 79.449219 199.234375 79.058594 C 222.058594 77.835938 245.464844 81.773438 258.84375 99.589844 C 276.074219 122.554688 267.664062 159.269531 255.027344 182.535156 C 241.203125 207.980469 225.410156 223.152344 204.578125 238.769531 C 199.148438 242.832031 196.59375 245.832031 191.765625 246.453125 C 187.558594 242.210938 181.722656 239.585938 175.28125 239.585938 C 162.449219 239.585938 152.050781 249.984375 152.050781 262.816406 C 152.050781 275.644531 162.449219 286.042969 175.28125 286.042969 C 188.019531 286.042969 198.367188 275.769531 198.492188 263.046875 C 199.734375 262.320312 201.417969 261.359375 203.832031 259.941406 C 209.707031 256.496094 215.3125 253.089844 220.085938 249.523438 L 234.726562 237.492188 C 275.277344 203.066406 304.519531 131.886719 261.453125 92.191406 C 231.921875 64.96875 186.796875 81.191406 176.699219 81.457031 Z M 176.699219 81.457031" fill="#3dbdec"/></g><path fill-rule="evenodd" fill-opacity="1" d="M 166.992188 235.292969 C 155.40625 228.371094 149.40625 228.160156 133.667969 216.179688 C 99.132812 189.953125 79.347656 143.28125 106.445312 108.234375 C 127.261719 81.296875 173.699219 99.378906 182.308594 110.398438 C 183.566406 112.03125 184.382812 113.964844 184.96875 116.078125 C 184.027344 118.597656 183.511719 121.3125 183.511719 124.152344 C 183.511719 136.980469 193.914062 147.378906 206.742188 147.378906 C 219.574219 147.378906 229.972656 136.980469 229.972656 124.152344 C 229.972656 111.320312 219.574219 100.921875 206.742188 100.921875 C 204.683594 100.921875 202.679688 101.1875 200.78125 101.703125 C 198.953125 100.832031 196.539062 99.539062 193.183594 97.585938 C 181.722656 90.914062 170.558594 84.613281 155.210938 82.199219 C 137.640625 79.433594 125.167969 81.4375 111.804688 88.835938 C 61.28125 116.894531 76.382812 173.964844 114.09375 208.160156 C 124.953125 218.027344 153.488281 232.523438 166.992188 235.292969 Z M 166.992188 235.292969" fill="#1f2b5b"/><path fill-rule="evenodd" fill-opacity="1" d="M 140.195312 142.519531 C 114.765625 142.519531 119.46875 137.246094 119.648438 163.476562 L 140.179688 163.917969 L 140.195312 184.449219 L 161.527344 184.414062 L 161.527344 164.273438 L 182.039062 163.832031 L 182.09375 142.589844 L 161.738281 142.484375 L 161.507812 121.988281 L 140.195312 121.988281 Z M 140.195312 142.519531" fill="#3dbdec"/><g fill-opacity="0.4" fill="#1f2b5b"><g transform="translate(160.294799, 226.495384)"><g><path d="M 1.078125 0 L 1.078125 -9.671875 L 4.90625 -9.671875 C 5.476562 -9.671875 5.96875 -9.539062 6.375 -9.28125 C 6.789062 -9.03125 7.109375 -8.6875 7.328125 -8.25 C 7.554688 -7.8125 7.660156 -7.304688 7.640625 -6.734375 C 7.628906 -6.378906 7.550781 -6.023438 7.40625 -5.671875 C 7.269531 -5.316406 7.050781 -5.035156 6.75 -4.828125 C 7.0625 -4.617188 7.304688 -4.335938 7.484375 -3.984375 C 7.660156 -3.640625 7.75 -3.28125 7.75 -2.90625 C 7.75 -2.363281 7.617188 -1.875 7.359375 -1.4375 C 7.109375 -1 6.765625 -0.648438 6.328125 -0.390625 C 5.898438 -0.128906 5.425781 0 4.90625 0 Z M 3.03125 -7.734375 L 3.03125 -5.796875 L 4.734375 -5.796875 C 5.015625 -5.796875 5.234375 -5.890625 5.390625 -6.078125 C 5.546875 -6.273438 5.625 -6.503906 5.625 -6.765625 C 5.625 -7.035156 5.546875 -7.265625 5.390625 -7.453125 C 5.234375 -7.640625 5.015625 -7.734375 4.734375 -7.734375 Z M 3.03125 -3.859375 L 3.03125 -1.9375 L 4.734375 -1.9375 C 5.015625 -1.9375 5.242188 -2.03125 5.421875 -2.21875 C 5.609375 -2.40625 5.703125 -2.632812 5.703125 -2.90625 C 5.703125 -3.175781 5.609375 -3.398438 5.421875 -3.578125 C 5.242188 -3.765625 5.015625 -3.859375 4.734375 -3.859375 Z M 3.03125 -3.859375"/></g></g></g><g fill-opacity="0.4" fill="#1f2b5b"><g transform="translate(170.325248, 226.495384)"><g><path d="M 5.890625 0 L 3.9375 -3.6875 L 3.015625 -3.6875 L 3.015625 0 L 1.078125 0 L 1.078125 -9.65625 L 4.890625 -9.65625 C 5.460938 -9.65625 5.945312 -9.535156 6.34375 -9.296875 C 6.75 -9.054688 7.0625 -8.742188 7.28125 -8.359375 C 7.507812 -7.984375 7.648438 -7.570312 7.703125 -7.125 C 7.765625 -6.675781 7.734375 -6.238281 7.609375 -5.8125 C 7.484375 -5.382812 7.273438 -5.003906 6.984375 -4.671875 C 6.691406 -4.347656 6.304688 -4.117188 5.828125 -3.984375 L 8.078125 0 Z M 3.015625 -5.5625 L 4.71875 -5.5625 C 4.976562 -5.5625 5.1875 -5.632812 5.34375 -5.78125 C 5.5 -5.925781 5.601562 -6.101562 5.65625 -6.3125 C 5.707031 -6.53125 5.707031 -6.75 5.65625 -6.96875 C 5.601562 -7.1875 5.5 -7.363281 5.34375 -7.5 C 5.1875 -7.644531 4.976562 -7.71875 4.71875 -7.71875 L 3.015625 -7.71875 Z M 3.015625 -5.5625"/></g></g></g><g fill-opacity="0.4" fill="#1f2b5b"><g transform="translate(180.247699, 226.495384)"><g><path d="M 3.015625 0 L 1.078125 0 L 1.078125 -9.65625 L 3.015625 -9.65625 Z M 3.015625 0"/></g></g></g><g fill-opacity="0.4" fill="#1f2b5b"><g transform="translate(185.998677, 226.495384)"><g><path d="M 3.953125 -9.65625 C 4.753906 -9.65625 5.457031 -9.519531 6.0625 -9.25 C 6.664062 -8.976562 7.164062 -8.613281 7.5625 -8.15625 C 7.96875 -7.695312 8.269531 -7.175781 8.46875 -6.59375 C 8.675781 -6.019531 8.78125 -5.429688 8.78125 -4.828125 C 8.78125 -4.222656 8.675781 -3.628906 8.46875 -3.046875 C 8.269531 -2.472656 7.96875 -1.957031 7.5625 -1.5 C 7.164062 -1.039062 6.664062 -0.675781 6.0625 -0.40625 C 5.457031 -0.132812 4.753906 0 3.953125 0 L 1.078125 0 L 1.078125 -9.65625 Z M 3.953125 -7.71875 L 3.015625 -7.71875 L 3.015625 -1.9375 L 3.953125 -1.9375 C 4.492188 -1.9375 4.953125 -2.035156 5.328125 -2.234375 C 5.710938 -2.441406 6.019531 -2.71875 6.25 -3.0625 C 6.476562 -3.414062 6.628906 -3.796875 6.703125 -4.203125 C 6.785156 -4.617188 6.785156 -5.03125 6.703125 -5.4375 C 6.628906 -5.851562 6.476562 -6.234375 6.25 -6.578125 C 6.019531 -6.921875 5.710938 -7.195312 5.328125 -7.40625 C 4.953125 -7.613281 4.492188 -7.71875 3.953125 -7.71875 Z M 3.953125 -7.71875"/></g></g></g><g fill-opacity="0.4" fill="#1f2b5b"><g transform="translate(197.149616, 226.495384)"><g><path d="M 8.046875 -0.59375 C 7.679688 -0.382812 7.285156 -0.222656 6.859375 -0.109375 C 6.441406 -0.00390625 6.003906 0.046875 5.546875 0.046875 C 4.753906 0.046875 4.050781 -0.0820312 3.4375 -0.34375 C 2.832031 -0.613281 2.320312 -0.976562 1.90625 -1.4375 C 1.5 -1.894531 1.1875 -2.40625 0.96875 -2.96875 C 0.757812 -3.539062 0.648438 -4.132812 0.640625 -4.75 C 0.640625 -5.363281 0.734375 -5.957031 0.921875 -6.53125 C 1.117188 -7.101562 1.421875 -7.625 1.828125 -8.09375 C 2.234375 -8.570312 2.742188 -8.957031 3.359375 -9.25 C 3.984375 -9.539062 4.710938 -9.703125 5.546875 -9.734375 C 5.929688 -9.753906 6.285156 -9.734375 6.609375 -9.671875 C 6.929688 -9.617188 7.195312 -9.5625 7.40625 -9.5 C 7.613281 -9.4375 7.742188 -9.394531 7.796875 -9.375 L 7.578125 -7.421875 C 7.390625 -7.503906 7.128906 -7.585938 6.796875 -7.671875 C 6.472656 -7.753906 6.054688 -7.789062 5.546875 -7.78125 C 4.992188 -7.757812 4.519531 -7.632812 4.125 -7.40625 C 3.726562 -7.1875 3.414062 -6.898438 3.1875 -6.546875 C 2.957031 -6.191406 2.804688 -5.804688 2.734375 -5.390625 C 2.660156 -4.984375 2.664062 -4.570312 2.75 -4.15625 C 2.832031 -3.738281 2.992188 -3.359375 3.234375 -3.015625 C 3.472656 -2.671875 3.785156 -2.394531 4.171875 -2.1875 C 4.554688 -1.976562 5.015625 -1.875 5.546875 -1.875 C 5.640625 -1.875 5.726562 -1.878906 5.8125 -1.890625 C 5.90625 -1.910156 6 -1.925781 6.09375 -1.9375 L 6.09375 -4.828125 L 8.046875 -4.828125 Z M 8.046875 -0.59375"/></g></g></g><g fill-opacity="0.4" fill="#1f2b5b"><g transform="translate(207.882056, 226.495384)"><g><path d="M 6.078125 0 L 1.078125 0 L 1.078125 -9.65625 L 5.90625 -9.65625 L 5.90625 -7.71875 L 3.015625 -7.71875 L 3.015625 -5.796875 L 5.546875 -5.796875 L 5.546875 -3.859375 L 3.015625 -3.859375 L 3.015625 -1.9375 L 6.078125 -1.9375 Z M 6.078125 0"/></g></g></g><g fill-opacity="1" fill="#545454"><g transform="translate(160.294799, 226.495384)"><g><path d="M 1.078125 0 L 1.078125 -9.671875 L 4.90625 -9.671875 C 5.476562 -9.671875 5.96875 -9.539062 6.375 -9.28125 C 6.789062 -9.03125 7.109375 -8.6875 7.328125 -8.25 C 7.554688 -7.8125 7.660156 -7.304688 7.640625 -6.734375 C 7.628906 -6.378906 7.550781 -6.023438 7.40625 -5.671875 C 7.269531 -5.316406 7.050781 -5.035156 6.75 -4.828125 C 7.0625 -4.617188 7.304688 -4.335938 7.484375 -3.984375 C 7.660156 -3.640625 7.75 -3.28125 7.75 -2.90625 C 7.75 -2.363281 7.617188 -1.875 7.359375 -1.4375 C 7.109375 -1 6.765625 -0.648438 6.328125 -0.390625 C 5.898438 -0.128906 5.425781 0 4.90625 0 Z M 3.03125 -7.734375 L 3.03125 -5.796875 L 4.734375 -5.796875 C 5.015625 -5.796875 5.234375 -5.890625 5.390625 -6.078125 C 5.546875 -6.273438 5.625 -6.503906 5.625 -6.765625 C 5.625 -7.035156 5.546875 -7.265625 5.390625 -7.453125 C 5.234375 -7.640625 5.015625 -7.734375 4.734375 -7.734375 Z M 3.03125 -3.859375 L 3.03125 -1.9375 L 4.734375 -1.9375 C 5.015625 -1.9375 5.242188 -2.03125 5.421875 -2.21875 C 5.609375 -2.40625 5.703125 -2.632812 5.703125 -2.90625 C 5.703125 -3.175781 5.609375 -3.398438 5.421875 -3.578125 C 5.242188 -3.765625 5.015625 -3.859375 4.734375 -3.859375 Z M 3.03125 -3.859375"/></g></g></g><g fill-opacity="1" fill="#545454"><g transform="translate(170.325248, 226.495384)"><g><path d="M 5.890625 0 L 3.9375 -3.6875 L 3.015625 -3.6875 L 3.015625 0 L 1.078125 0 L 1.078125 -9.65625 L 4.890625 -9.65625 C 5.460938 -9.65625 5.945312 -9.535156 6.34375 -9.296875 C 6.75 -9.054688 7.0625 -8.742188 7.28125 -8.359375 C 7.507812 -7.984375 7.648438 -7.570312 7.703125 -7.125 C 7.765625 -6.675781 7.734375 -6.238281 7.609375 -5.8125 C 7.484375 -5.382812 7.273438 -5.003906 6.984375 -4.671875 C 6.691406 -4.347656 6.304688 -4.117188 5.828125 -3.984375 L 8.078125 0 Z M 3.015625 -5.5625 L 4.71875 -5.5625 C 4.976562 -5.5625 5.1875 -5.632812 5.34375 -5.78125 C 5.5 -5.925781 5.601562 -6.101562 5.65625 -6.3125 C 5.707031 -6.53125 5.707031 -6.75 5.65625 -6.96875 C 5.601562 -7.1875 5.5 -7.363281 5.34375 -7.5 C 5.1875 -7.644531 4.976562 -7.71875 4.71875 -7.71875 L 3.015625 -7.71875 Z M 3.015625 -5.5625"/></g></g></g><g fill-opacity="1" fill="#545454"><g transform="translate(180.247699, 226.495384)"><g><path d="M 3.015625 0 L 1.078125 0 L 1.078125 -9.65625 L 3.015625 -9.65625 Z M 3.015625 0"/></g></g></g><g fill-opacity="1" fill="#545454"><g transform="translate(185.998677, 226.495384)"><g><path d="M 3.953125 -9.65625 C 4.753906 -9.65625 5.457031 -9.519531 6.0625 -9.25 C 6.664062 -8.976562 7.164062 -8.613281 7.5625 -8.15625 C 7.96875 -7.695312 8.269531 -7.175781 8.46875 -6.59375 C 8.675781 -6.019531 8.78125 -5.429688 8.78125 -4.828125 C 8.78125 -4.222656 8.675781 -3.628906 8.46875 -3.046875 C 8.269531 -2.472656 7.96875 -1.957031 7.5625 -1.5 C 7.164062 -1.039062 6.664062 -0.675781 6.0625 -0.40625 C 5.457031 -0.132812 4.753906 0 3.953125 0 L 1.078125 0 L 1.078125 -9.65625 Z M 3.953125 -7.71875 L 3.015625 -7.71875 L 3.015625 -1.9375 L 3.953125 -1.9375 C 4.492188 -1.9375 4.953125 -2.035156 5.328125 -2.234375 C 5.710938 -2.441406 6.019531 -2.71875 6.25 -3.0625 C 6.476562 -3.414062 6.628906 -3.796875 6.703125 -4.203125 C 6.785156 -4.617188 6.785156 -5.03125 6.703125 -5.4375 C 6.628906 -5.851562 6.476562 -6.234375 6.25 -6.578125 C 6.019531 -6.921875 5.710938 -7.195312 5.328125 -7.40625 C 4.953125 -7.613281 4.492188 -7.71875 3.953125 -7.71875 Z M 3.953125 -7.71875"/></g></g></g><g fill-opacity="1" fill="#545454"><g transform="translate(197.149616, 226.495384)"><g><path d="M 8.046875 -0.59375 C 7.679688 -0.382812 7.285156 -0.222656 6.859375 -0.109375 C 6.441406 -0.00390625 6.003906 0.046875 5.546875 0.046875 C 4.753906 0.046875 4.050781 -0.0820312 3.4375 -0.34375 C 2.832031 -0.613281 2.320312 -0.976562 1.90625 -1.4375 C 1.5 -1.894531 1.1875 -2.40625 0.96875 -2.96875 C 0.757812 -3.539062 0.648438 -4.132812 0.640625 -4.75 C 0.640625 -5.363281 0.734375 -5.957031 0.921875 -6.53125 C 1.117188 -7.101562 1.421875 -7.625 1.828125 -8.09375 C 2.234375 -8.570312 2.742188 -8.957031 3.359375 -9.25 C 3.984375 -9.539062 4.710938 -9.703125 5.546875 -9.734375 C 5.929688 -9.753906 6.285156 -9.734375 6.609375 -9.671875 C 6.929688 -9.617188 7.195312 -9.5625 7.40625 -9.5 C 7.613281 -9.4375 7.742188 -9.394531 7.796875 -9.375 L 7.578125 -7.421875 C 7.390625 -7.503906 7.128906 -7.585938 6.796875 -7.671875 C 6.472656 -7.753906 6.054688 -7.789062 5.546875 -7.78125 C 4.992188 -7.757812 4.519531 -7.632812 4.125 -7.40625 C 3.726562 -7.1875 3.414062 -6.898438 3.1875 -6.546875 C 2.957031 -6.191406 2.804688 -5.804688 2.734375 -5.390625 C 2.660156 -4.984375 2.664062 -4.570312 2.75 -4.15625 C 2.832031 -3.738281 2.992188 -3.359375 3.234375 -3.015625 C 3.472656 -2.671875 3.785156 -2.394531 4.171875 -2.1875 C 4.554688 -1.976562 5.015625 -1.875 5.546875 -1.875 C 5.640625 -1.875 5.726562 -1.878906 5.8125 -1.890625 C 5.90625 -1.910156 6 -1.925781 6.09375 -1.9375 L 6.09375 -4.828125 L 8.046875 -4.828125 Z M 8.046875 -0.59375"/></g></g></g><g fill-opacity="1" fill="#545454"><g transform="translate(207.882056, 226.495384)"><g><path d="M 6.078125 0 L 1.078125 0 L 1.078125 -9.65625 L 5.90625 -9.65625 L 5.90625 -7.71875 L 3.015625 -7.71875 L 3.015625 -5.796875 L 5.546875 -5.796875 L 5.546875 -3.859375 L 3.015625 -3.859375 L 3.015625 -1.9375 L 6.078125 -1.9375 Z M 6.078125 0"/></g></g></g><g fill-opacity="1" fill="#3dbdec"><g transform="translate(160.303372, 208.888424)"><g><path d="M 17.921875 -24.703125 L 24.078125 -24.703125 L 24.078125 -6.015625 C 24.078125 -4.898438 23.800781 -3.875 23.25 -2.9375 C 22.695312 -2.007812 21.953125 -1.269531 21.015625 -0.71875 C 20.085938 -0.164062 19.054688 0.109375 17.921875 0.109375 L 17.921875 -14.71875 L 12.71875 -8.484375 L 7.46875 -14.484375 L 7.46875 -6.015625 C 7.46875 -4.898438 7.191406 -3.875 6.640625 -2.9375 C 6.085938 -2.007812 5.34375 -1.269531 4.40625 -0.71875 C 3.476562 -0.164062 2.457031 0.109375 1.34375 0.109375 L 1.34375 -18.609375 C 1.34375 -19.742188 1.613281 -20.773438 2.15625 -21.703125 C 2.695312 -22.628906 3.429688 -23.367188 4.359375 -23.921875 C 5.285156 -24.472656 6.320312 -24.75 7.46875 -24.75 L 12.71875 -16.953125 Z M 17.921875 -24.703125"/></g></g></g><g fill-opacity="1" fill="#3dbdec"><g transform="translate(184.270204, 208.888424)"><g><path d="M 6.75 -9.78125 L 6.75 -5.828125 L 16.109375 -5.828125 C 16.109375 -4.765625 15.859375 -3.789062 15.359375 -2.90625 C 14.859375 -2.019531 14.175781 -1.3125 13.3125 -0.78125 C 12.457031 -0.257812 11.488281 0 10.40625 0 L 6.59375 0 C 5.582031 0 4.648438 -0.25 3.796875 -0.75 C 2.941406 -1.25 2.265625 -1.921875 1.765625 -2.765625 C 1.273438 -3.617188 1.03125 -4.554688 1.03125 -5.578125 L 1.03125 -19.078125 C 1.03125 -20.128906 1.285156 -21.082031 1.796875 -21.9375 C 2.316406 -22.800781 3.003906 -23.488281 3.859375 -24 C 4.722656 -24.519531 5.679688 -24.78125 6.734375 -24.78125 L 17.375 -24.78125 C 17.375 -23.695312 17.15625 -22.710938 16.71875 -21.828125 C 16.28125 -20.941406 15.660156 -20.234375 14.859375 -19.703125 C 14.066406 -19.179688 13.125 -18.921875 12.03125 -18.921875 L 6.75 -18.921875 L 6.75 -15.1875 L 13.71875 -15.1875 L 12.4375 -9.78125 Z M 6.75 -9.78125"/></g></g></g><g fill-opacity="1" fill="#3dbdec"><g transform="translate(201.246544, 208.888424)"><g><path d="M 10.171875 -25 C 11.898438 -25 13.445312 -24.640625 14.8125 -23.921875 C 16.1875 -23.210938 17.269531 -22.179688 18.0625 -20.828125 C 18.863281 -19.472656 19.265625 -17.832031 19.265625 -15.90625 L 19.265625 -8.21875 C 19.265625 -7.082031 19.035156 -6.007812 18.578125 -5 C 18.117188 -4 17.476562 -3.109375 16.65625 -2.328125 C 15.832031 -1.546875 14.867188 -0.9375 13.765625 -0.5 C 12.660156 -0.0625 11.460938 0.15625 10.171875 0.15625 L 1.359375 0.15625 C 1.347656 0.15625 1.34375 0.15625 1.34375 0.15625 C 1.34375 0.15625 1.332031 0.15625 1.3125 0.15625 L 1.3125 -19.578125 C 1.3125 -20.503906 1.515625 -21.359375 1.921875 -22.140625 C 2.335938 -22.921875 2.910156 -23.5625 3.640625 -24.0625 C 4.367188 -24.570312 5.210938 -24.875 6.171875 -24.96875 L 6.171875 -25 L 6.78125 -25 C 6.78125 -25 6.785156 -25 6.796875 -25 C 6.804688 -25 6.8125 -25 6.8125 -25 Z M 13.953125 -9.0625 L 13.953125 -15.765625 C 13.953125 -16.453125 13.78125 -17.09375 13.4375 -17.6875 C 13.101562 -18.28125 12.648438 -18.757812 12.078125 -19.125 C 11.503906 -19.5 10.867188 -19.6875 10.171875 -19.6875 L 6.8125 -19.6875 L 6.8125 -5.28125 C 6.8125 -5.257812 6.8125 -5.234375 6.8125 -5.203125 C 6.8125 -5.179688 6.8125 -5.164062 6.8125 -5.15625 L 10.171875 -5.15625 C 10.867188 -5.15625 11.503906 -5.335938 12.078125 -5.703125 C 12.648438 -6.066406 13.101562 -6.546875 13.4375 -7.140625 C 13.78125 -7.742188 13.953125 -8.382812 13.953125 -9.0625 Z M 13.953125 -9.0625"/></g></g></g><g fill-opacity="1" fill="#3dbdec"><g transform="translate(220.456687, 208.888424)"><g><path d="M 1.3125 -19.46875 C 1.3125 -20.4375 1.566406 -21.316406 2.078125 -22.109375 C 2.597656 -22.910156 3.296875 -23.550781 4.171875 -24.03125 C 5.054688 -24.507812 6.019531 -24.75 7.0625 -24.75 L 7.0625 -5.171875 C 7.0625 -4.191406 6.800781 -3.300781 6.28125 -2.5 C 5.769531 -1.707031 5.082031 -1.070312 4.21875 -0.59375 C 3.351562 -0.125 2.382812 0.109375 1.3125 0.109375 Z M 1.3125 -19.46875"/></g></g></g><g fill-opacity="1" fill="#3dbdec"><g transform="translate(160.303372, 208.888424)"><g><path d="M 17.921875 -24.703125 L 24.078125 -24.703125 L 24.078125 -6.015625 C 24.078125 -4.898438 23.800781 -3.875 23.25 -2.9375 C 22.695312 -2.007812 21.953125 -1.269531 21.015625 -0.71875 C 20.085938 -0.164062 19.054688 0.109375 17.921875 0.109375 L 17.921875 -14.71875 L 12.71875 -8.484375 L 7.46875 -14.484375 L 7.46875 -6.015625 C 7.46875 -4.898438 7.191406 -3.875 6.640625 -2.9375 C 6.085938 -2.007812 5.34375 -1.269531 4.40625 -0.71875 C 3.476562 -0.164062 2.457031 0.109375 1.34375 0.109375 L 1.34375 -18.609375 C 1.34375 -19.742188 1.613281 -20.773438 2.15625 -21.703125 C 2.695312 -22.628906 3.429688 -23.367188 4.359375 -23.921875 C 5.285156 -24.472656 6.320312 -24.75 7.46875 -24.75 L 12.71875 -16.953125 Z M 17.921875 -24.703125"/></g></g></g><g fill-opacity="1" fill="#3dbdec"><g transform="translate(184.270204, 208.888424)"><g><path d="M 6.75 -9.78125 L 6.75 -5.828125 L 16.109375 -5.828125 C 16.109375 -4.765625 15.859375 -3.789062 15.359375 -2.90625 C 14.859375 -2.019531 14.175781 -1.3125 13.3125 -0.78125 C 12.457031 -0.257812 11.488281 0 10.40625 0 L 6.59375 0 C 5.582031 0 4.648438 -0.25 3.796875 -0.75 C 2.941406 -1.25 2.265625 -1.921875 1.765625 -2.765625 C 1.273438 -3.617188 1.03125 -4.554688 1.03125 -5.578125 L 1.03125 -19.078125 C 1.03125 -20.128906 1.285156 -21.082031 1.796875 -21.9375 C 2.316406 -22.800781 3.003906 -23.488281 3.859375 -24 C 4.722656 -24.519531 5.679688 -24.78125 6.734375 -24.78125 L 17.375 -24.78125 C 17.375 -23.695312 17.15625 -22.710938 16.71875 -21.828125 C 16.28125 -20.941406 15.660156 -20.234375 14.859375 -19.703125 C 14.066406 -19.179688 13.125 -18.921875 12.03125 -18.921875 L 6.75 -18.921875 L 6.75 -15.1875 L 13.71875 -15.1875 L 12.4375 -9.78125 Z M 6.75 -9.78125"/></g></g></g><g fill-opacity="1" fill="#3dbdec"><g transform="translate(201.246544, 208.888424)"><g><path d="M 10.171875 -25 C 11.898438 -25 13.445312 -24.640625 14.8125 -23.921875 C 16.1875 -23.210938 17.269531 -22.179688 18.0625 -20.828125 C 18.863281 -19.472656 19.265625 -17.832031 19.265625 -15.90625 L 19.265625 -8.21875 C 19.265625 -7.082031 19.035156 -6.007812 18.578125 -5 C 18.117188 -4 17.476562 -3.109375 16.65625 -2.328125 C 15.832031 -1.546875 14.867188 -0.9375 13.765625 -0.5 C 12.660156 -0.0625 11.460938 0.15625 10.171875 0.15625 L 1.359375 0.15625 C 1.347656 0.15625 1.34375 0.15625 1.34375 0.15625 C 1.34375 0.15625 1.332031 0.15625 1.3125 0.15625 L 1.3125 -19.578125 C 1.3125 -20.503906 1.515625 -21.359375 1.921875 -22.140625 C 2.335938 -22.921875 2.910156 -23.5625 3.640625 -24.0625 C 4.367188 -24.570312 5.210938 -24.875 6.171875 -24.96875 L 6.171875 -25 L 6.78125 -25 C 6.78125 -25 6.785156 -25 6.796875 -25 C 6.804688 -25 6.8125 -25 6.8125 -25 Z M 13.953125 -9.0625 L 13.953125 -15.765625 C 13.953125 -16.453125 13.78125 -17.09375 13.4375 -17.6875 C 13.101562 -18.28125 12.648438 -18.757812 12.078125 -19.125 C 11.503906 -19.5 10.867188 -19.6875 10.171875 -19.6875 L 6.8125 -19.6875 L 6.8125 -5.28125 C 6.8125 -5.257812 6.8125 -5.234375 6.8125 -5.203125 C 6.8125 -5.179688 6.8125 -5.164062 6.8125 -5.15625 L 10.171875 -5.15625 C 10.867188 -5.15625 11.503906 -5.335938 12.078125 -5.703125 C 12.648438 -6.066406 13.101562 -6.546875 13.4375 -7.140625 C 13.78125 -7.742188 13.953125 -8.382812 13.953125 -9.0625 Z M 13.953125 -9.0625"/></g></g></g><g fill-opacity="1" fill="#3dbdec"><g transform="translate(220.456687, 208.888424)"><g><path d="M 1.3125 -19.46875 C 1.3125 -20.4375 1.566406 -21.316406 2.078125 -22.109375 C 2.597656 -22.910156 3.296875 -23.550781 4.171875 -24.03125 C 5.054688 -24.507812 6.019531 -24.75 7.0625 -24.75 L 7.0625 -5.171875 C 7.0625 -4.191406 6.800781 -3.300781 6.28125 -2.5 C 5.769531 -1.707031 5.082031 -1.070312 4.21875 -0.59375 C 3.351562 -0.125 2.382812 0.109375 1.3125 0.109375 Z M 1.3125 -19.46875"/></g></g></g></svg>